# xmcd
#
# Track frame offsets: 
#        150
#        13349
#        25016
#        36179
#        54551
#        71131
#        82764
#        98542
#        112824
#        123310
#        136478
#        149172
#        167499
#        181507
#        200315
#        209494
#        225353
#        241968
#        256550
#        275086
#
# Disc length: 3863 seconds
#
# Revision: 0
# Processed by: cddbd v1.5.2PL0 Copyright (c) Steve Scherf et al.
# Submitted via: ExactAudioCopy v1.0b3
#
DISCID=0a0f1514
DTITLE=Billy Joe Shaver - The Collection [CD2]
DYEAR=2019
DGENRE=Country
TTITLE0=Amtrak
TTITLE1=Bottom Dollar
TTITLE2=Old Five And Dimers Like Me
TTITLE3=How Many Hearts Must You Break
TTITLE4=Oklahoma Wind
TTITLE5=Ride Me Down Easy
TTITLE6=Tell Me Virginia
TTITLE7=Low Down Freedom
TTITLE8=One Moving Part
TTITLE9=I Been To Georgia On A Fast Train
TTITLE10=Fit To Kill And Going Out In Style
TTITLE11=Blue Texas Waltz
TTITLE12=Saturday Night
TTITLE13=Ragged Old Truck
TTITLE14=I'm Just An Old Chunk Of Coal (But I'm Gonna Be A Diamond Som
TTITLE14=eday)
TTITLE15=When The World Was Thunderbird
TTITLE16=(We Are) The Cowboys
TTITLE17=Mexico
TTITLE18=It Ain't Nothing New Babe
TTITLE19=The Road
EXTD=
EXTT0=
EXTT1=
EXTT2=
EXTT3=
EXTT4=
EXTT5=
EXTT6=
EXTT7=
EXTT8=
EXTT9=
EXTT10=
EXTT11=
EXTT12=
EXTT13=
EXTT14=
EXTT15=
EXTT16=
EXTT17=
EXTT18=
EXTT19=
PLAYORDER=
